<?xml version="1.0" standalone="no"?>
<!DOCTYPE svg PUBLIC "-//W3C//DTD SVG 20010904//EN"
 "http://www.w3.org/TR/2001/REC-SVG-20010904/DTD/svg10.dtd">
<svg version="1.0" xmlns="http://www.w3.org/2000/svg"
 width="286.000000pt" height="286.000000pt" viewBox="0 0 286.000000 286.000000"
 preserveAspectRatio="xMidYMid meet">
<metadata>
Created by potrace 1.11, written by Peter Selinger 2001-2013
</metadata>
<g transform="translate(0.000000,286.000000) scale(0.100000,-0.100000)"
fill="#000000" stroke="none">
<path d="M789 2003 c-46 -80 -97 -170 -114 -198 -137 -239 -213 -371 -229
-398 -10 -18 -80 -140 -156 -272 -76 -132 -163 -283 -193 -335 l-55 -95 419
-3 c230 -1 607 -1 838 0 l418 3 -353 615 c-194 338 -362 629 -372 645 -10 17
-38 65 -62 108 -24 42 -46 77 -50 77 -4 0 -44 -66 -91 -147z"/>
<path d="M1840 1953 c-109 -191 -259 -451 -328 -571 -18 -31 -40 -71 -49 -88
l-16 -32 128 -223 c71 -123 135 -235 142 -249 8 -14 22 -38 32 -55 l18 -30
517 -3 517 -2 -25 42 c-13 24 -33 57 -43 75 -10 18 -178 309 -373 648 -195
339 -363 632 -373 651 -11 18 -22 34 -26 34 -4 0 -58 -89 -121 -197z"/>
</g>
</svg>
